<?xml version="1.0" encoding="UTF-8" standalone="no"?>
<!DOCTYPE svg PUBLIC "-//W3C//DTD SVG 1.1//EN" "http://www.w3.org/Graphics/SVG/1.1/DTD/svg11.dtd">
<svg width="100%" height="100%" viewBox="0 0 1080 1080" version="1.1" xmlns="http://www.w3.org/2000/svg" xmlns:xlink="http://www.w3.org/1999/xlink" xml:space="preserve" xmlns:serif="http://www.serif.com/" style="fill-rule:evenodd;clip-rule:evenodd;stroke-linejoin:round;stroke-miterlimit:2;">
    <g transform="matrix(4,0,0,4,-3988.29,-400)">
        <path d="M1267.07,167.5L1267.07,302.5C1267.07,339.754 1236.83,370 1199.57,370L1064.57,370C1027.32,370 997.073,339.754 997.073,302.5L997.073,167.5C997.073,130.246 1027.32,100 1064.57,100L1199.57,100C1236.83,100 1267.07,130.246 1267.07,167.5ZM1256.27,167.5C1256.27,136.206 1230.87,110.8 1199.57,110.8L1064.57,110.8C1033.28,110.8 1007.87,136.206 1007.87,167.5L1007.87,302.5C1007.87,333.794 1033.28,359.2 1064.57,359.2L1199.57,359.2C1230.87,359.2 1256.27,333.794 1256.27,302.5L1256.27,167.5ZM1032.73,162.73C1032.88,162.2 1033.11,161.696 1033.41,161.234C1034.66,159.329 1035.75,157.519 1036.92,155.769C1037.84,154.412 1038.86,153.126 1039.86,151.831C1041.71,149.442 1043.9,147.376 1046.1,145.329C1047.87,143.682 1049.76,142.129 1051.75,140.772C1054,139.244 1056.38,137.897 1058.76,136.576C1061.01,135.327 1063.39,134.349 1065.77,133.382C1068.54,132.258 1071.35,131.282 1074.25,130.556C1075.95,130.132 1077.64,129.677 1079.35,129.325C1080.87,129.013 1082.41,128.846 1083.94,128.566C1085.29,128.317 1086.66,128.137 1088.02,127.971C1088.35,127.923 1088.67,127.876 1088.99,127.831C1090.69,127.596 1092.39,127.421 1094.1,127.315C1095.6,127.221 1097.12,127.167 1098.61,127.127C1100.07,127.007 1101.53,126.986 1102.97,127.008C1104.43,126.986 1105.89,127.007 1107.35,127.127C1108.85,127.167 1110.37,127.221 1111.88,127.315C1113.58,127.421 1115.28,127.596 1116.98,127.831C1117.3,127.876 1117.62,127.923 1117.95,127.97C1119.31,128.137 1120.68,128.317 1122.04,128.566C1123.56,128.846 1125.1,129.013 1126.62,129.325C1128.33,129.677 1130.02,130.132 1131.72,130.556C1134.62,131.282 1137.43,132.258 1140.2,133.382C1142.58,134.349 1144.96,135.327 1147.21,136.576C1149.59,137.897 1151.97,139.244 1154.22,140.772C1156.22,142.129 1158.1,143.682 1159.87,145.329C1162.07,147.376 1164.27,149.442 1166.11,151.831C1167.12,153.126 1168.13,154.412 1169.05,155.769C1170.23,157.519 1171.31,159.329 1172.56,161.234C1172.86,161.696 1173.09,162.202 1173.24,162.733C1173.74,163.647 1174.17,164.596 1174.64,165.523C1176.1,168.38 1177.07,171.427 1178.05,174.462C1178.36,175.417 1178.54,176.44 1178.86,177.373C1179.31,178.696 1179.47,180.052 1179.81,181.38C1180.08,182.416 1180.09,183.548 1180.36,184.549C1181.08,187.232 1181.25,189.973 1181.59,192.687C1181.9,195.242 1181.9,197.848 1181.89,200.432C1181.88,202.64 1181.83,204.848 1181.78,207.054C1181.79,207.198 1181.81,207.343 1181.82,207.487C1181.9,208.204 1181.92,209.018 1181.86,209.717L1181.69,210.538C1181.68,210.748 1181.68,210.958 1181.67,211.168C1181.67,211.017 1181.67,210.859 1181.66,210.7L1181.65,211.531L1181.65,212.095L1181.58,212.327L1181.49,213.461L1181.37,213.847C1181.37,213.978 1181.38,214.106 1181.38,214.202C1181.38,215.978 1180.91,217.682 1180.68,219.418C1180.51,220.66 1180.33,221.891 1180.06,223.113C1179.78,224.395 1179.49,225.677 1179.2,226.958C1179,227.857 1178.8,228.757 1178.57,229.648C1178.43,230.188 1178.2,230.707 1178.03,231.242C1176.68,235.539 1174.95,239.684 1172.84,243.651C1171.77,245.669 1170.32,247.485 1169.14,249.454C1167.93,251.473 1166.42,253.256 1164.9,255.003C1163.31,256.84 1161.43,258.444 1159.63,260.099C1158.48,261.163 1157.29,262.216 1156.02,263.127C1154.05,264.53 1152.04,265.888 1149.98,267.14C1148.19,268.223 1146.32,269.187 1144.44,270.094C1141.39,271.563 1138.23,272.793 1135.01,273.811C1133.26,274.364 1131.45,274.745 1129.69,275.276C1128.23,275.713 1126.69,275.866 1125.19,276.161C1124.07,276.382 1122.96,276.67 1121.84,276.876C1120.97,277.035 1120.08,277.105 1119.2,277.187C1118.18,277.283 1117.15,277.335 1116.12,277.423C1115.57,277.513 1115.01,277.577 1114.45,277.63C1114.44,277.633 1114.42,277.636 1114.4,277.64C1113.65,277.779 1112.9,277.836 1112.16,277.855C1110.55,278.079 1108.92,278.168 1107.3,278.155C1105.86,278.218 1104.42,278.203 1102.99,278.177C1101.55,278.203 1100.11,278.218 1098.68,278.155C1097.06,278.168 1095.42,278.079 1093.81,277.855C1093.07,277.836 1092.32,277.779 1091.57,277.64C1091.55,277.637 1091.54,277.634 1091.52,277.63C1090.96,277.577 1090.4,277.513 1089.85,277.423C1088.82,277.335 1087.79,277.283 1086.77,277.187C1085.89,277.105 1085,277.035 1084.13,276.876C1083.01,276.67 1081.9,276.382 1080.78,276.161C1079.28,275.866 1077.74,275.713 1076.28,275.276C1074.52,274.745 1072.71,274.364 1070.96,273.811C1067.74,272.793 1064.58,271.563 1061.53,270.094C1059.65,269.187 1057.78,268.223 1055.99,267.14C1053.93,265.888 1051.92,264.53 1049.95,263.127C1048.68,262.216 1047.49,261.163 1046.34,260.099C1044.54,258.444 1042.67,256.84 1041.07,255.003C1039.55,253.256 1038.04,251.473 1036.83,249.454C1035.65,247.485 1034.2,245.669 1033.13,243.651C1031.02,239.684 1029.29,235.539 1027.94,231.242C1027.77,230.707 1027.54,230.188 1027.4,229.648C1027.17,228.757 1026.97,227.857 1026.77,226.958C1026.48,225.677 1026.2,224.395 1025.91,223.113C1025.64,221.891 1025.46,220.66 1025.29,219.418C1025.06,217.682 1024.59,215.978 1024.59,214.202C1024.59,214.106 1024.6,213.978 1024.6,213.847L1024.48,213.461L1024.39,212.327L1024.32,212.095L1024.32,211.531L1024.31,210.7C1024.3,210.859 1024.3,211.017 1024.3,211.168C1024.29,210.958 1024.29,210.748 1024.28,210.538L1024.11,209.717C1024.05,209.018 1024.07,208.204 1024.15,207.487C1024.16,207.343 1024.18,207.2 1024.19,207.056L1024.19,207.054C1024.14,204.847 1024.09,202.639 1024.08,200.432C1024.07,197.848 1024.07,195.242 1024.38,192.687C1024.72,189.973 1024.89,187.232 1025.61,184.549C1025.88,183.548 1025.89,182.416 1026.16,181.38C1026.5,180.052 1026.66,178.696 1027.11,177.373C1027.43,176.44 1027.61,175.417 1027.92,174.462C1028.9,171.427 1029.87,168.38 1031.33,165.523C1031.81,164.59 1032.24,163.634 1032.73,162.73ZM1032.61,163.272C1032.6,163.332 1032.58,163.394 1032.57,163.455L1032.61,163.272ZM1181.64,210.779L1181.53,211.315C1181.57,211.188 1181.6,211.061 1181.62,210.933L1181.64,210.779ZM1170.89,211.46L1170.89,211.445L1170.89,211.296C1170.89,211.35 1170.89,211.405 1170.89,211.46ZM1052.88,250.389C1053.1,250.554 1054.27,251.405 1054.82,251.915C1056.16,253.165 1057.62,254.248 1059.16,255.259C1061.52,256.801 1063.86,258.338 1066.45,259.456C1068.01,260.128 1069.55,260.833 1071.13,261.444C1072.55,261.993 1073.96,262.599 1075.43,262.949C1078.61,263.701 1081.74,264.662 1085,265.035C1086.78,265.239 1088.52,265.767 1090.3,265.919C1091.47,266.02 1092.64,266.13 1093.81,266.239C1095.4,266.277 1096.99,266.323 1098.58,266.459C1100.05,266.585 1101.52,266.647 1102.99,266.652C1104.46,266.647 1105.93,266.585 1107.39,266.459C1108.98,266.323 1110.57,266.277 1112.16,266.239C1113.33,266.13 1114.5,266.02 1115.67,265.919C1117.45,265.767 1119.19,265.239 1120.97,265.035C1124.23,264.662 1127.36,263.701 1130.54,262.949C1132.01,262.599 1133.42,261.993 1134.84,261.444C1136.42,260.833 1137.96,260.128 1139.52,259.456C1142.11,258.338 1144.45,256.801 1146.81,255.259C1148.35,254.248 1149.81,253.165 1151.16,251.915C1151.7,251.406 1152.86,250.556 1153.09,250.389C1154.73,248.376 1156.76,246.733 1158.25,244.559C1159.52,242.712 1160.77,240.839 1162.02,238.981C1162.45,238.347 1162.67,237.578 1163.01,236.882C1163.05,236.787 1163.1,236.693 1163.15,236.6C1163.73,235.571 1164.32,234.687 1164.7,233.716C1165.55,231.514 1166.32,229.276 1167.05,227.029C1167.54,225.515 1167.95,223.972 1168.32,222.423C1168.43,221.944 1168.56,221.467 1168.67,220.988L1168.63,221.169L1168.72,220.798L1168.68,220.967C1168.8,220.473 1168.91,219.977 1168.96,219.462C1169.07,218.057 1169.34,216.664 1169.6,215.283C1169.62,215.121 1169.64,214.958 1169.67,214.796C1169.93,213.026 1169.96,211.201 1170.14,209.4C1170.37,207.154 1170.36,204.88 1170.38,202.618C1170.39,201.186 1170.22,199.754 1170.17,198.321C1170.13,197.516 1170.16,196.708 1170.15,195.901C1170.15,195.913 1170.16,195.925 1170.16,195.937C1169.97,194.82 1169.66,193.68 1169.71,192.577C1169.8,190.647 1169.21,188.808 1169,186.959C1169.02,187.155 1169.06,187.351 1169.11,187.544L1168.74,185.282C1168.75,184.356 1168.31,183.517 1168.12,182.635C1167.78,181.105 1167.31,179.601 1166.86,178.099C1166.38,176.505 1165.96,174.891 1165.22,173.38C1164.54,171.973 1164.01,170.495 1163.34,169.079C1162.95,168.264 1162.47,167.499 1162.02,166.712C1161.63,166.015 1161.24,165.316 1160.83,164.631C1159.9,163.099 1158.85,161.659 1157.72,160.272C1157.25,159.688 1156.86,159.027 1156.35,158.478C1153.67,155.609 1150.85,152.886 1147.63,150.638C1145.55,149.179 1143.29,147.963 1141.07,146.688C1139.86,145.988 1138.59,145.401 1137.24,144.956C1135.84,144.492 1134.53,143.784 1133.13,143.313C1130.81,142.533 1128.51,141.696 1126.06,141.357C1124.71,141.169 1123.4,140.651 1122.05,140.407C1120.05,140.044 1118.03,139.754 1116.02,139.485C1115.67,139.439 1115.32,139.396 1114.99,139.356C1114.56,139.324 1114.14,139.281 1113.71,139.22C1113.4,139.19 1113.09,139.161 1112.77,139.133C1111.5,139.08 1110.23,139.127 1108.98,138.981C1108.57,138.934 1108.16,138.895 1107.75,138.865C1106.16,138.85 1104.57,138.798 1102.98,138.773C1101.4,138.798 1099.81,138.85 1098.22,138.865C1097.81,138.896 1097.4,138.934 1096.99,138.981C1095.74,139.128 1094.46,139.08 1093.19,139.134C1092.88,139.161 1092.57,139.19 1092.26,139.22C1091.84,139.281 1091.42,139.324 1090.99,139.355L1090.99,139.356C1090.64,139.396 1090.3,139.439 1089.95,139.485C1087.94,139.754 1085.92,140.044 1083.92,140.407C1082.57,140.651 1081.26,141.169 1079.91,141.357C1077.46,141.696 1075.16,142.533 1072.84,143.313C1071.44,143.784 1070.13,144.492 1068.73,144.956C1067.38,145.401 1066.11,145.988 1064.9,146.688C1062.69,147.963 1060.42,149.179 1058.34,150.638C1055.12,152.886 1052.3,155.609 1049.62,158.478C1049.11,159.027 1048.72,159.688 1048.25,160.272C1047.12,161.659 1046.07,163.099 1045.14,164.631C1044.73,165.316 1044.34,166.015 1043.95,166.712C1043.51,167.499 1043.02,168.264 1042.63,169.079C1041.96,170.495 1041.43,171.973 1040.75,173.38C1040.01,174.891 1039.6,176.505 1039.11,178.099C1038.66,179.601 1038.19,181.105 1037.85,182.635C1037.66,183.517 1037.22,184.356 1037.23,185.282L1036.86,187.544C1036.91,187.355 1036.95,187.162 1036.98,186.921C1036.76,188.808 1036.17,190.647 1036.26,192.577C1036.31,193.68 1036,194.82 1035.81,195.933C1035.81,195.921 1035.82,195.91 1035.82,195.901C1035.81,196.708 1035.84,197.516 1035.8,198.321C1035.75,199.754 1035.58,201.186 1035.59,202.618C1035.61,204.88 1035.6,207.154 1035.83,209.4C1036.01,211.201 1036.04,213.026 1036.31,214.796C1036.33,214.954 1036.35,215.113 1036.37,215.273C1036.63,216.666 1036.9,218.058 1037.01,219.462C1037.06,219.977 1037.17,220.473 1037.29,220.967L1037.25,220.798L1037.34,221.169L1037.3,220.988C1037.41,221.467 1037.54,221.944 1037.65,222.423C1038.02,223.972 1038.43,225.515 1038.92,227.029C1039.65,229.276 1040.42,231.514 1041.27,233.716C1041.65,234.687 1042.24,235.571 1042.82,236.6C1042.87,236.693 1042.92,236.787 1042.96,236.882C1043.3,237.578 1043.52,238.347 1043.95,238.981C1045.2,240.839 1046.45,242.712 1047.72,244.559C1049.22,246.741 1051.25,248.387 1052.88,250.389ZM1137.47,197.2C1149.39,197.2 1159.07,206.879 1159.07,218.8C1159.07,230.721 1149.39,240.4 1137.47,240.4C1125.55,240.4 1115.87,230.721 1115.87,218.8C1115.87,206.879 1125.55,197.2 1137.47,197.2ZM1072.67,170.2C1087.57,170.2 1099.67,182.298 1099.67,197.2C1099.67,212.102 1087.57,224.2 1072.67,224.2C1057.77,224.2 1045.67,212.102 1045.67,197.2C1045.67,182.298 1057.77,170.2 1072.67,170.2ZM1105.07,148.6C1111.03,148.6 1115.87,153.439 1115.87,159.4C1115.87,165.361 1111.03,170.2 1105.07,170.2C1099.11,170.2 1094.27,165.361 1094.27,159.4C1094.27,153.439 1099.11,148.6 1105.07,148.6ZM1035.08,211.445L1035.08,211.46C1035.08,211.405 1035.08,211.35 1035.08,211.296L1035.08,211.445ZM1173.36,163.273L1173.4,163.455C1173.39,163.394 1173.38,163.333 1173.36,163.273ZM1024.33,210.779L1024.35,210.933C1024.37,211.061 1024.4,211.188 1024.44,211.315L1024.33,210.779ZM1181.24,213.618L1181.23,213.653C1181.23,213.65 1181.23,213.646 1181.23,213.642L1181.24,213.618ZM1024.88,214.731C1024.93,214.938 1024.99,215.128 1025.06,215.27L1024.88,214.731ZM1024.74,213.618L1024.74,213.642C1024.74,213.646 1024.74,213.65 1024.75,213.653L1024.74,213.618ZM1181.09,214.731L1180.91,215.27C1180.98,215.128 1181.04,214.938 1181.09,214.731Z"/>
    </g>
</svg>
