<?xml version="1.0" encoding="UTF-8" standalone="no"?>
<!DOCTYPE svg PUBLIC "-//W3C//DTD SVG 1.1//EN" "http://www.w3.org/Graphics/SVG/1.1/DTD/svg11.dtd">
<svg width="100%" height="100%" viewBox="0 0 1080 1080" version="1.1" xmlns="http://www.w3.org/2000/svg" xmlns:xlink="http://www.w3.org/1999/xlink" xml:space="preserve" xmlns:serif="http://www.serif.com/" style="fill-rule:evenodd;clip-rule:evenodd;stroke-linejoin:round;stroke-miterlimit:2;">
    <g transform="matrix(2.16,0,0,2.16,-3982.38,-1728)">
        <path d="M2343.69,925L2343.69,1175C2343.69,1243.99 2287.68,1300 2218.69,1300L1968.69,1300C1899.7,1300 1843.69,1243.99 1843.69,1175L1843.69,925C1843.69,856.011 1899.7,800 1968.69,800L2218.69,800C2287.68,800 2343.69,856.011 2343.69,925ZM2323.69,925C2323.69,867.049 2276.64,820 2218.69,820L1968.69,820C1910.74,820 1863.69,867.049 1863.69,925L1863.69,1175C1863.69,1232.95 1910.74,1280 1968.69,1280L2218.69,1280C2276.64,1280 2323.69,1232.95 2323.69,1175L2323.69,925ZM1953.69,860C1981.29,860 2003.69,882.404 2003.69,910C2003.69,937.596 1981.29,960 1953.69,960C1926.1,960 1903.69,937.596 1903.69,910C1903.69,882.404 1926.1,860 1953.69,860ZM2053.69,955C2061.97,955 2068.69,961.721 2068.69,970C2068.69,978.279 2061.97,985 2053.69,985C2045.41,985 2038.69,978.279 2038.69,970C2038.69,961.721 2045.41,955 2053.69,955ZM2053.69,1000C2070.25,1000 2083.69,1013.44 2083.69,1030C2083.69,1046.56 2070.25,1060 2053.69,1060C2037.14,1060 2023.69,1046.56 2023.69,1030C2023.69,1013.44 2037.14,1000 2053.69,1000ZM1953.69,1100C1981.29,1100 2003.69,1122.4 2003.69,1150C2003.69,1177.6 1981.29,1200 1953.69,1200C1926.1,1200 1903.69,1177.6 1903.69,1150C1903.69,1122.4 1926.1,1100 1953.69,1100ZM2053.69,880C2070.25,880 2083.69,893.443 2083.69,910C2083.69,926.557 2070.25,940 2053.69,940C2037.14,940 2023.69,926.557 2023.69,910C2023.69,893.443 2037.14,880 2053.69,880ZM1953.69,980C1981.29,980 2003.69,1002.4 2003.69,1030C2003.69,1057.6 1981.29,1080 1953.69,1080C1926.1,1080 1903.69,1057.6 1903.69,1030C1903.69,1002.4 1926.1,980 1953.69,980Z"/>
    </g>
</svg>
