<?xml version="1.0" encoding="UTF-8" standalone="no"?>
<!DOCTYPE svg PUBLIC "-//W3C//DTD SVG 1.1//EN" "http://www.w3.org/Graphics/SVG/1.1/DTD/svg11.dtd">
<svg width="100%" height="100%" viewBox="0 0 1080 1080" version="1.1" xmlns="http://www.w3.org/2000/svg" xmlns:xlink="http://www.w3.org/1999/xlink" xml:space="preserve" xmlns:serif="http://www.serif.com/" style="fill-rule:evenodd;clip-rule:evenodd;stroke-linejoin:round;stroke-miterlimit:2;">
    <g transform="matrix(2.16,0,0,2.16,-7201.82,-441.907)">
        <path d="M3834.17,329.587L3834.17,579.587C3834.17,648.576 3778.16,704.587 3709.17,704.587L3459.17,704.587C3390.18,704.587 3334.17,648.576 3334.17,579.587L3334.17,329.587C3334.17,260.597 3390.18,204.587 3459.17,204.587L3709.17,204.587C3778.16,204.587 3834.17,260.597 3834.17,329.587ZM3434.17,227.586C3388.28,238.814 3354.17,280.249 3354.17,329.587L3354.17,579.587C3354.17,637.538 3401.22,684.587 3459.17,684.587L3709.17,684.587C3710.85,684.587 3712.52,684.547 3714.17,684.47L3714.17,534.587L3500.72,534.587C3463.97,534.587 3434.17,504.793 3434.17,468.042L3434.17,227.586ZM3734.17,681.587C3780.07,670.359 3814.17,628.924 3814.17,579.587L3814.17,329.587C3814.17,271.636 3767.12,224.587 3709.17,224.587L3459.17,224.587C3457.5,224.587 3455.83,224.626 3454.17,224.704L3454.17,264.587L3667.63,264.587C3704.38,264.587 3734.17,294.38 3734.17,331.132L3734.17,681.587ZM3714.17,514.587L3714.17,331.132C3714.17,305.426 3693.34,284.587 3667.63,284.587L3454.17,284.587L3454.17,468.042C3454.17,493.748 3475.01,514.587 3500.72,514.587L3714.17,514.587ZM3654.17,414.587C3676.25,414.587 3694.17,432.51 3694.17,454.587C3694.17,476.663 3676.25,494.587 3654.17,494.587C3632.1,494.587 3614.17,476.663 3614.17,454.587C3614.17,432.51 3632.1,414.587 3654.17,414.587ZM3484.17,354.587C3484.17,349.068 3488.66,344.587 3494.17,344.587C3499.69,344.587 3504.17,349.068 3504.17,354.587L3504.17,374.587C3504.17,380.106 3499.69,384.587 3494.17,384.587C3488.66,384.587 3484.17,380.106 3484.17,374.587L3484.17,354.587ZM3514.17,414.587C3536.25,414.587 3554.17,432.51 3554.17,454.587C3554.17,476.663 3536.25,494.587 3514.17,494.587C3492.1,494.587 3474.17,476.663 3474.17,454.587C3474.17,432.51 3492.1,414.587 3514.17,414.587ZM3584.17,304.587C3617.29,304.587 3644.17,331.472 3644.17,364.587C3644.17,397.702 3617.29,424.587 3584.17,424.587C3551.06,424.587 3524.17,397.702 3524.17,364.587C3524.17,331.472 3551.06,304.587 3584.17,304.587Z"/>
    </g>
</svg>
