<?xml version="1.0" encoding="UTF-8" standalone="no"?>
<!DOCTYPE svg PUBLIC "-//W3C//DTD SVG 1.1//EN" "http://www.w3.org/Graphics/SVG/1.1/DTD/svg11.dtd">
<svg width="100%" height="100%" viewBox="0 0 1080 1080" version="1.1" xmlns="http://www.w3.org/2000/svg" xmlns:xlink="http://www.w3.org/1999/xlink" xml:space="preserve" xmlns:serif="http://www.serif.com/" style="fill-rule:evenodd;clip-rule:evenodd;stroke-linejoin:round;stroke-miterlimit:2;">
    <g transform="matrix(2.16,0,0,2.16,-7201.82,-441.907)">
        <path d="M3834.17,329.587L3834.17,579.587C3834.17,648.576 3778.16,704.587 3709.17,704.587L3459.17,704.587C3390.18,704.587 3334.17,648.576 3334.17,579.587L3334.17,329.587C3334.17,260.597 3390.18,204.587 3459.17,204.587L3709.17,204.587C3778.16,204.587 3834.17,260.597 3834.17,329.587ZM3814.17,329.587C3814.17,271.636 3767.12,224.587 3709.17,224.587L3459.17,224.587C3401.22,224.587 3354.17,271.636 3354.17,329.587L3354.17,579.587C3354.17,637.538 3401.22,684.587 3459.17,684.587L3709.17,684.587C3767.12,684.587 3814.17,637.538 3814.17,579.587L3814.17,329.587ZM3434.17,633.747C3425.62,633.753 3417.01,631.929 3408.94,628.195C3387.74,618.378 3374.17,597.141 3374.17,573.778L3374.17,321.775C3374.17,298.412 3387.74,277.175 3408.94,267.358C3430.14,257.541 3455.12,260.93 3472.93,276.043L3570,358.378C3596.26,380.651 3611.4,413.343 3611.4,447.776C3611.4,471.504 3604.21,494.405 3591.15,513.64L3591.15,593.747C3591.15,604.355 3586.93,614.53 3579.43,622.031C3571.93,629.533 3561.76,633.747 3551.15,633.747L3434.17,633.747ZM3434.17,613.747C3443.46,613.738 3452.64,610.497 3460,604.258L3557.07,521.923C3578.84,503.45 3591.4,476.335 3591.4,447.776C3591.4,419.218 3578.84,392.103 3557.07,373.63L3460,291.295C3448.12,281.222 3431.48,278.963 3417.35,285.507C3403.22,292.05 3394.17,306.204 3394.17,321.775L3394.17,573.778C3394.17,589.349 3403.22,603.503 3417.35,610.046C3422.73,612.537 3428.47,613.752 3434.17,613.747ZM3433.42,300.045C3447.01,300.045 3458.04,311.078 3458.04,324.667C3458.04,338.256 3447.01,349.289 3433.42,349.289C3419.83,349.289 3408.8,338.256 3408.8,324.667C3408.8,311.078 3419.83,300.045 3433.42,300.045ZM3494.97,373.911C3535.74,373.911 3568.84,407.009 3568.84,447.776C3568.84,488.544 3535.74,521.642 3494.97,521.642C3454.2,521.642 3421.11,488.544 3421.11,447.776C3421.11,407.009 3454.2,373.911 3494.97,373.911ZM3408.8,546.264C3408.8,532.675 3419.83,521.642 3433.42,521.642C3447.01,521.642 3458.04,532.675 3458.04,546.264L3458.04,570.886C3458.04,584.475 3447.01,595.508 3433.42,595.508C3419.83,595.508 3408.8,584.475 3408.8,570.886L3408.8,546.264ZM3571.15,536.189C3570.77,536.52 3570.39,536.849 3570,537.175L3479.73,613.747L3551.15,613.747C3556.45,613.747 3561.54,611.64 3565.29,607.889C3569.04,604.138 3571.15,599.051 3571.15,593.747L3571.15,536.189Z"/>
    </g>
</svg>
