<?xml version="1.0" encoding="UTF-8" standalone="no"?>
<!DOCTYPE svg PUBLIC "-//W3C//DTD SVG 1.1//EN" "http://www.w3.org/Graphics/SVG/1.1/DTD/svg11.dtd">
<svg width="100%" height="100%" viewBox="0 0 1080 1080" version="1.1" xmlns="http://www.w3.org/2000/svg" xmlns:xlink="http://www.w3.org/1999/xlink" xml:space="preserve" xmlns:serif="http://www.serif.com/" style="fill-rule:evenodd;clip-rule:evenodd;stroke-linejoin:round;stroke-miterlimit:2;">
    <g transform="matrix(2.16,0,0,2.16,-43.2,-216)">
        <path d="M520,225L520,475C520,543.989 463.989,600 395,600L145,600C76.011,600 20,543.989 20,475L20,225C20,156.011 76.011,100 145,100L395,100C463.989,100 520,156.011 520,225ZM500,225C500,167.049 452.951,120 395,120L145,120C87.049,120 40,167.049 40,225L40,475C40,532.951 87.049,580 145,580L395,580C452.951,580 500,532.951 500,475L500,225ZM340,224L340,346C340,392.361 302.361,430 256,430L144,430C97.639,430 60,392.361 60,346L60,224C60,177.639 97.639,140 144,140L256,140C302.361,140 340,177.639 340,224ZM320,224C320,188.677 291.323,160 256,160L144,160C108.677,160 80,188.677 80,224L80,346C80,381.323 108.677,410 144,410L256,410C291.323,410 320,381.323 320,346L320,224ZM260,180C271.038,180 280,188.962 280,200C280,211.038 271.038,220 260,220C248.962,220 240,211.038 240,200C240,188.962 248.962,180 260,180ZM150,290C177.596,290 200,312.404 200,340C200,367.596 177.596,390 150,390C122.404,390 100,367.596 100,340C100,312.404 122.404,290 150,290ZM260,350C271.038,350 280,358.962 280,370C280,381.038 271.038,390 260,390C248.962,390 240,381.038 240,370C240,358.962 248.962,350 260,350ZM295,340C297.76,340 300,342.24 300,345C300,347.76 297.76,350 295,350C292.24,350 290,347.76 290,345C290,342.24 292.24,340 295,340ZM260,235C287.596,235 310,257.404 310,285C310,312.596 287.596,335 260,335C232.404,335 210,312.596 210,285C210,257.404 232.404,235 260,235ZM150,180C177.596,180 200,202.404 200,230C200,257.596 177.596,280 150,280C122.404,280 100,257.596 100,230C100,202.404 122.404,180 150,180Z"/>
    </g>
</svg>
