<?xml version="1.0" encoding="UTF-8" standalone="no"?>
<!DOCTYPE svg PUBLIC "-//W3C//DTD SVG 1.1//EN" "http://www.w3.org/Graphics/SVG/1.1/DTD/svg11.dtd">
<svg width="100%" height="100%" viewBox="0 0 1080 1080" version="1.1" xmlns="http://www.w3.org/2000/svg" xmlns:xlink="http://www.w3.org/1999/xlink" xml:space="preserve" xmlns:serif="http://www.serif.com/" style="fill-rule:evenodd;clip-rule:evenodd;stroke-linejoin:round;stroke-miterlimit:2;">
    <g transform="matrix(2.16,0,0,2.16,-1944,-216)">
        <path d="M1400,225L1400,475C1400,543.989 1343.99,600 1275,600L1025,600C956.011,600 900,543.989 900,475L900,225C900,156.011 956.011,100 1025,100L1275,100C1343.99,100 1400,156.011 1400,225ZM1380,225C1380,167.049 1332.95,120 1275,120L1025,120C967.049,120 920,167.049 920,225L920,475C920,532.951 967.049,580 1025,580L1275,580C1332.95,580 1380,532.951 1380,475L1380,225ZM995,150C1014.32,150 1030,165.683 1030,185C1030,204.317 1014.32,220 995,220C975.683,220 960,204.317 960,185C960,165.683 975.683,150 995,150ZM995,390C1014.32,390 1030,405.683 1030,425C1030,444.317 1014.32,460 995,460C975.683,460 960,444.317 960,425C960,405.683 975.683,390 995,390ZM995,399.95C981.175,399.95 969.95,411.175 969.95,425C969.95,438.825 981.175,450.05 995,450.05C1008.83,450.05 1020.05,438.825 1020.05,425C1020.05,411.175 1008.83,399.95 995,399.95ZM995,230C1014.32,230 1030,245.683 1030,265C1030,284.317 1014.32,300 995,300C975.683,300 960,284.317 960,265C960,245.683 975.683,230 995,230ZM995,310C1014.32,310 1030,325.683 1030,345C1030,364.317 1014.32,380 995,380C975.683,380 960,364.317 960,345C960,325.683 975.683,310 995,310Z"/>
    </g>
</svg>
