<?xml version="1.0" encoding="UTF-8" standalone="no"?>
<!DOCTYPE svg PUBLIC "-//W3C//DTD SVG 1.1//EN" "http://www.w3.org/Graphics/SVG/1.1/DTD/svg11.dtd">
<svg width="100%" height="100%" viewBox="0 0 1080 1080" version="1.1" xmlns="http://www.w3.org/2000/svg" xmlns:xlink="http://www.w3.org/1999/xlink" xml:space="preserve" xmlns:serif="http://www.serif.com/" style="fill-rule:evenodd;clip-rule:evenodd;stroke-linejoin:round;stroke-miterlimit:2;">
    <g transform="matrix(2.16,0,0,2.16,-2419.2,-216)">
        <path d="M1620,225L1620,475C1620,543.989 1563.99,600 1495,600L1245,600C1176.01,600 1120,543.989 1120,475L1120,225C1120,156.011 1176.01,100 1245,100L1495,100C1563.99,100 1620,156.011 1620,225ZM1140,430L1140,475C1140,532.951 1187.05,580 1245,580L1495,580C1552.95,580 1600,532.951 1600,475L1600,225C1600,167.049 1552.95,120 1495,120L1447.5,120L1447.5,342.5C1447.5,390.793 1408.29,430 1360,430L1140,430ZM1427.5,120L1245,120C1187.05,120 1140,167.049 1140,225L1140,410L1360,410C1397.25,410 1427.5,379.754 1427.5,342.5L1427.5,120ZM1382.5,318.75L1382.5,356.25C1382.5,363.149 1376.9,368.75 1370,368.75C1363.1,368.75 1357.5,363.149 1357.5,356.25L1357.5,318.75C1357.5,311.851 1363.1,306.25 1370,306.25C1376.9,306.25 1382.5,311.851 1382.5,318.75ZM1266.79,329.752L1266.79,345.248C1266.79,367.67 1248.58,385.873 1226.16,385.873C1203.74,385.873 1185.54,367.67 1185.54,345.248L1185.54,329.752C1185.54,307.33 1203.74,289.127 1226.16,289.127C1248.58,289.127 1266.79,307.33 1266.79,329.752ZM1345,157.461C1372.6,157.461 1395,179.866 1395,207.461C1395,235.057 1372.6,257.461 1345,257.461C1317.4,257.461 1295,235.057 1295,207.461C1295,179.866 1317.4,157.461 1345,157.461ZM1226.16,157.461C1253.76,157.461 1276.16,179.866 1276.16,207.461C1276.16,235.057 1253.76,257.461 1226.16,257.461C1198.57,257.461 1176.16,235.057 1176.16,207.461C1176.16,179.866 1198.57,157.461 1226.16,157.461Z"/>
    </g>
</svg>
