<?xml version="1.0" encoding="UTF-8" standalone="no"?>
<!DOCTYPE svg PUBLIC "-//W3C//DTD SVG 1.1//EN" "http://www.w3.org/Graphics/SVG/1.1/DTD/svg11.dtd">
<svg width="100%" height="100%" viewBox="0 0 1080 1080" version="1.1" xmlns="http://www.w3.org/2000/svg" xmlns:xlink="http://www.w3.org/1999/xlink" xml:space="preserve" xmlns:serif="http://www.serif.com/" style="fill-rule:evenodd;clip-rule:evenodd;stroke-linejoin:round;stroke-miterlimit:2;">
    <g transform="matrix(2.16,0,0,2.16,-1944,-216)">
        <path d="M1400,225L1400,475C1400,543.989 1343.99,600 1275,600L1025,600C956.011,600 900,543.989 900,475L900,225C900,156.011 956.011,100 1025,100L1275,100C1343.99,100 1400,156.011 1400,225ZM1380,225C1380,167.049 1332.95,120 1275,120L1025,120C967.049,120 920,167.049 920,225L920,475C920,532.951 967.049,580 1025,580L1275,580C1332.95,580 1380,532.951 1380,475L1380,225ZM1020,270C1042.08,270 1060,287.923 1060,310C1060,332.077 1042.08,350 1020,350C997.923,350 980,332.077 980,310C980,287.923 997.923,270 1020,270ZM959.374,345.013C956.61,340.235 958.244,334.113 963.022,331.349C967.799,328.585 973.921,330.219 976.685,334.996C985.332,349.942 1001.49,360 1020,360C1047.61,360 1070,337.614 1070,310L1070,260C1070,254.481 1074.48,250 1080,250C1085.52,250 1090,254.481 1090,260L1090,310C1090,348.66 1058.66,380 1020,380C994.096,380 971.476,365.93 959.374,345.013ZM1312.93,152.929C1316.83,149.026 1323.17,149.026 1327.07,152.929C1330.97,156.832 1330.97,163.168 1327.07,167.071L1267.07,227.071C1263.17,230.974 1256.83,230.974 1252.93,227.071C1249.03,223.168 1249.03,216.832 1252.93,212.929L1312.93,152.929ZM1140,500C1140,494.481 1144.48,490 1150,490C1155.52,490 1160,494.481 1160,500L1160,550C1160,555.519 1155.52,560 1150,560C1144.48,560 1140,555.519 1140,550L1140,500ZM1101.54,414.185C1096.1,415.135 1090.92,411.492 1089.97,406.055C1089.02,400.619 1092.66,395.433 1098.1,394.483C1114.96,391.537 1132.3,390 1150,390C1225.19,390 1293.96,417.721 1346.63,463.49C1350.79,467.111 1351.24,473.432 1347.62,477.598C1344,481.764 1337.68,482.207 1333.51,478.587C1284.35,435.871 1220.17,410 1150,410C1133.48,410 1117.28,411.434 1101.54,414.185ZM966.706,478.4C962.536,482.016 956.215,481.566 952.599,477.397C948.983,473.227 949.433,466.906 953.603,463.29C983.404,437.447 1018.34,417.378 1056.67,404.826C1061.92,403.109 1067.57,405.973 1069.29,411.218C1071.01,416.463 1068.14,422.115 1062.9,423.833C1027.12,435.548 994.518,454.281 966.706,478.4ZM1020,180C1042.08,180 1060,197.923 1060,220C1060,242.077 1042.08,260 1020,260C997.923,260 980,242.077 980,220C980,197.923 997.923,180 1020,180ZM1076.69,229.438C1072.8,228.07 1070,224.359 1070,220C1070,192.386 1047.61,170 1020,170C992.386,170 970,192.386 970,220L970,270C970,275.519 965.519,280 960,280C954.481,280 950,275.519 950,270L950,220C950,181.34 981.34,150 1020,150C1058.66,150 1090,181.34 1090,220C1090,220.004 1090,220.008 1090,220.013C1090,225.527 1085.52,230.004 1080.01,230.004C1078.85,230.004 1077.73,229.804 1076.69,229.438Z"/>
    </g>
</svg>
