<?xml version="1.0" encoding="UTF-8" standalone="no"?>
<!DOCTYPE svg PUBLIC "-//W3C//DTD SVG 1.1//EN" "http://www.w3.org/Graphics/SVG/1.1/DTD/svg11.dtd">
<svg width="100%" height="100%" viewBox="0 0 1080 1080" version="1.1" xmlns="http://www.w3.org/2000/svg" xmlns:xlink="http://www.w3.org/1999/xlink" xml:space="preserve" xmlns:serif="http://www.serif.com/" style="fill-rule:evenodd;clip-rule:evenodd;stroke-linejoin:round;stroke-miterlimit:2;">
    <g transform="matrix(2.16,0,0,2.16,-5983.2,-1728)">
        <path d="M2770,1175L2770,925C2770,856.011 2826.01,800 2895,800L3145,800C3213.99,800 3270,856.011 3270,925L3270,1175C3270,1243.99 3213.99,1300 3145,1300L2895,1300C2826.01,1300 2770,1243.99 2770,1175ZM2790,1030C2790,1112.79 2857.21,1180 2940,1180C3022.79,1180 3090,1112.79 3090,1030C3090,947.213 3022.79,880 2940,880C2857.21,880 2790,947.213 2790,1030ZM2880,1040C2907.6,1040 2930,1062.4 2930,1090C2930,1117.6 2907.6,1140 2880,1140C2852.4,1140 2830,1117.6 2830,1090C2830,1062.4 2852.4,1040 2880,1040ZM3000,920C3027.6,920 3050,942.404 3050,970C3050,997.596 3027.6,1020 3000,1020C2972.4,1020 2950,997.596 2950,970C2950,942.404 2972.4,920 3000,920ZM2880,920C2907.6,920 2930,942.404 2930,970C2930,997.596 2907.6,1020 2880,1020C2852.4,1020 2830,997.596 2830,970C2830,942.404 2852.4,920 2880,920ZM3000,1040C3027.6,1040 3050,1062.4 3050,1090C3050,1117.6 3027.6,1140 3000,1140C2972.4,1140 2950,1117.6 2950,1090C2950,1062.4 2972.4,1040 3000,1040ZM2819.63,909.997C2819.76,909.999 2819.88,910 2820,910C2830.13,910 2838.51,902.451 2839.82,892.676C2839.94,891.8 2840,890.907 2840,890C2840,886.864 2839.28,883.895 2837.99,881.252C2837.78,880.826 2837.56,880.408 2837.32,880C2833.86,874.024 2827.4,870 2820,870C2808.96,870 2800,878.962 2800,890C2800,897.397 2804.02,903.861 2810,907.321C2810.88,907.832 2811.81,908.277 2812.77,908.65C2814.9,909.48 2817.22,909.953 2819.63,909.997ZM2793,1200C2804.23,1245.9 2845.66,1280 2895,1280L3145,1280C3202.95,1280 3250,1232.95 3250,1175L3250,925C3250,867.049 3202.95,820 3145,820L2895,820C2861.58,820 2831.79,835.643 2812.56,860L2940,860C3033.83,860 3110,936.174 3110,1030C3110,1123.83 3033.83,1200 2940,1200L2793,1200Z"/>
    </g>
</svg>
