<?xml version="1.0" encoding="UTF-8" standalone="no"?>
<!DOCTYPE svg PUBLIC "-//W3C//DTD SVG 1.1//EN" "http://www.w3.org/Graphics/SVG/1.1/DTD/svg11.dtd">
<svg width="100%" height="100%" viewBox="0 0 1080 1080" version="1.1" xmlns="http://www.w3.org/2000/svg" xmlns:xlink="http://www.w3.org/1999/xlink" xml:space="preserve" xmlns:serif="http://www.serif.com/" style="fill-rule:evenodd;clip-rule:evenodd;stroke-linejoin:round;stroke-miterlimit:2;">
    <g transform="matrix(2.16,0,0,2.16,-4793.97,-1728)">
        <path d="M2719.43,925L2719.43,1175C2719.43,1243.99 2663.42,1300 2594.43,1300L2344.43,1300C2275.44,1300 2219.43,1243.99 2219.43,1175L2219.43,925C2219.43,856.011 2275.44,800 2344.43,800L2594.43,800C2663.42,800 2719.43,856.011 2719.43,925ZM2699.43,925C2699.43,867.049 2652.38,820 2594.43,820L2344.43,820C2286.48,820 2239.43,867.049 2239.43,925L2239.43,1175C2239.43,1232.95 2286.48,1280 2344.43,1280L2594.43,1280C2652.38,1280 2699.43,1232.95 2699.43,1175L2699.43,925ZM2643.22,1013.79L2643.22,1026.21C2643.22,1122.13 2565.35,1200 2469.43,1200C2373.51,1200 2295.64,1122.13 2295.64,1026.21L2295.64,1013.79C2295.64,917.874 2373.51,840 2469.43,840C2565.35,840 2643.22,917.874 2643.22,1013.79ZM2623.22,1013.79C2623.22,928.912 2554.31,860 2469.43,860C2384.55,860 2315.64,928.912 2315.64,1013.79L2315.64,1026.21C2315.64,1111.09 2384.55,1180 2469.43,1180C2554.31,1180 2623.22,1111.09 2623.22,1026.21L2623.22,1013.79ZM2504.43,970L2504.43,1070L2434.43,1070L2434.43,970L2504.43,970ZM2369.43,980C2391.51,980 2409.43,997.923 2409.43,1020C2409.43,1042.08 2391.51,1060 2369.43,1060C2347.35,1060 2329.43,1042.08 2329.43,1020C2329.43,997.923 2347.35,980 2369.43,980ZM2469.43,880C2491.51,880 2509.43,897.923 2509.43,920C2509.43,942.077 2491.51,960 2469.43,960C2447.35,960 2429.43,942.077 2429.43,920C2429.43,897.923 2447.35,880 2469.43,880ZM2469.43,1080C2491.51,1080 2509.43,1097.92 2509.43,1120C2509.43,1142.08 2491.51,1160 2469.43,1160C2447.35,1160 2429.43,1142.08 2429.43,1120C2429.43,1097.92 2447.35,1080 2469.43,1080ZM2299.43,860C2310.47,860 2319.43,868.962 2319.43,880C2319.43,891.038 2310.47,900 2299.43,900C2288.39,900 2279.43,891.038 2279.43,880C2279.43,868.962 2288.39,860 2299.43,860Z"/>
    </g>
</svg>
