<?xml version="1.0" encoding="UTF-8" standalone="no"?>
<!DOCTYPE svg PUBLIC "-//W3C//DTD SVG 1.1//EN" "http://www.w3.org/Graphics/SVG/1.1/DTD/svg11.dtd">
<svg width="100%" height="100%" viewBox="0 0 1080 1080" version="1.1" xmlns="http://www.w3.org/2000/svg" xmlns:xlink="http://www.w3.org/1999/xlink" xml:space="preserve" xmlns:serif="http://www.serif.com/" style="fill-rule:evenodd;clip-rule:evenodd;stroke-linejoin:round;stroke-miterlimit:2;">
    <g transform="matrix(2.16,0,0,2.16,-1382.4,-129.6)">
        <path d="M640,435L640,185C640,116.011 696.011,60 765,60L1015,60C1083.99,60 1140,116.011 1140,185L1140,435C1140,503.989 1083.99,560 1015,560L765,560C696.011,560 640,503.989 640,435ZM1120,320L1120,185C1120,183.324 1119.96,181.657 1119.88,180L660.117,180C660.039,181.657 660,183.324 660,185L660,320L1120,320ZM1055,190C1068.8,190 1080,201.202 1080,215C1080,228.798 1068.8,240 1055,240C1041.2,240 1030,228.798 1030,215C1030,201.202 1041.2,190 1055,190ZM1000,250C1000,277.596 977.596,300 950,300L750,300C722.404,300 700,277.596 700,250C700,222.404 722.404,200 750,200L950,200C977.596,200 1000,222.404 1000,250ZM1055,260C1068.8,260 1080,271.202 1080,285C1080,298.798 1068.8,310 1055,310C1041.2,310 1030,298.798 1030,285C1030,271.202 1041.2,260 1055,260ZM660,340L660,435C660,492.951 707.049,540 765,540L1015,540C1072.95,540 1120,492.951 1120,435L1120,340L660,340ZM1117,160C1105.77,114.102 1064.34,80 1015,80L765,80C715.663,80 674.227,114.102 663,160L1117,160Z"/>
    </g>
</svg>
