<?xml version="1.0" encoding="UTF-8" standalone="no"?>
<!DOCTYPE svg PUBLIC "-//W3C//DTD SVG 1.1//EN" "http://www.w3.org/Graphics/SVG/1.1/DTD/svg11.dtd">
<svg width="100%" height="100%" viewBox="0 0 1080 1080" version="1.1" xmlns="http://www.w3.org/2000/svg" xmlns:xlink="http://www.w3.org/1999/xlink" xml:space="preserve" xmlns:serif="http://www.serif.com/" style="fill-rule:evenodd;clip-rule:evenodd;stroke-linejoin:round;stroke-miterlimit:2;">
    <g transform="matrix(2.16,0,0,2.16,-43.2,-3240)">
        <path d="M520,1625L520,1875C520,1943.99 463.989,2000 395,2000L145,2000C76.011,2000 20,1943.99 20,1875L20,1625C20,1556.01 76.011,1500 145,1500L395,1500C463.989,1500 520,1556.01 520,1625ZM500,1625C500,1567.05 452.951,1520 395,1520L145,1520C87.049,1520 40,1567.05 40,1625L40,1875C40,1932.95 87.049,1980 145,1980L395,1980C452.951,1980 500,1932.95 500,1875L500,1625ZM450,1720C450,1819.35 369.345,1900 270,1900C170.655,1900 90,1819.35 90,1720C90,1620.65 170.655,1540 270,1540C369.345,1540 450,1620.65 450,1720ZM430,1720C430,1631.69 358.306,1560 270,1560C181.694,1560 110,1631.69 110,1720C110,1808.31 181.694,1880 270,1880C358.306,1880 430,1808.31 430,1720ZM330,1620C352.077,1620 370,1637.92 370,1660C370,1682.08 352.077,1700 330,1700C307.923,1700 290,1682.08 290,1660C290,1637.92 307.923,1620 330,1620ZM260,1590C260,1584.48 264.481,1580 270,1580C275.519,1580 280,1584.48 280,1590L280,1610C280,1615.52 275.519,1620 270,1620C264.481,1620 260,1615.52 260,1610L260,1590ZM210,1620C232.077,1620 250,1637.92 250,1660C250,1682.08 232.077,1700 210,1700C187.923,1700 170,1682.08 170,1660C170,1637.92 187.923,1620 210,1620ZM210,1740C232.077,1740 250,1757.92 250,1780C250,1802.08 232.077,1820 210,1820C187.923,1820 170,1802.08 170,1780C170,1757.92 187.923,1740 210,1740ZM330,1740C352.077,1740 370,1757.92 370,1780C370,1802.08 352.077,1820 330,1820C307.923,1820 290,1802.08 290,1780C290,1757.92 307.923,1740 330,1740Z"/>
    </g>
</svg>
