<?xml version="1.0" encoding="UTF-8" standalone="no"?>
<!DOCTYPE svg PUBLIC "-//W3C//DTD SVG 1.1//EN" "http://www.w3.org/Graphics/SVG/1.1/DTD/svg11.dtd">
<svg width="100%" height="100%" viewBox="0 0 1080 1080" version="1.1" xmlns="http://www.w3.org/2000/svg" xmlns:xlink="http://www.w3.org/1999/xlink" xml:space="preserve" xmlns:serif="http://www.serif.com/" style="fill-rule:evenodd;clip-rule:evenodd;stroke-linejoin:round;stroke-miterlimit:2;">
    <g transform="matrix(2.16,0,0,2.16,-7171.2,-1729.42)">
        <path d="M3820,925.659L3820,1175.66C3820,1244.65 3763.99,1300.66 3695,1300.66L3445,1300.66C3376.01,1300.66 3320,1244.65 3320,1175.66L3320,925.659C3320,856.67 3376.01,800.659 3445,800.659L3695,800.659C3763.99,800.659 3820,856.67 3820,925.659ZM3800,925.659C3800,867.708 3752.95,820.659 3695,820.659L3445,820.659C3387.05,820.659 3340,867.708 3340,925.659L3340,1175.66C3340,1233.61 3387.05,1280.66 3445,1280.66L3695,1280.66C3752.95,1280.66 3800,1233.61 3800,1175.66L3800,925.659ZM3743.79,1014.45L3743.79,1026.87C3743.79,1122.79 3665.92,1200.66 3570,1200.66C3474.08,1200.66 3396.21,1122.79 3396.21,1026.87L3396.21,1014.45C3396.21,918.533 3474.08,840.659 3570,840.659C3665.92,840.659 3743.79,918.533 3743.79,1014.45ZM3723.79,1014.45C3723.79,929.572 3654.88,860.659 3570,860.659C3485.12,860.659 3416.21,929.572 3416.21,1014.45L3416.21,1026.87C3416.21,1111.75 3485.12,1180.66 3570,1180.66C3654.88,1180.66 3723.79,1111.75 3723.79,1026.87L3723.79,1014.45ZM3630,1030C3657.6,1030 3680,1052.4 3680,1080C3680,1107.6 3657.6,1130 3630,1130C3602.4,1130 3580,1107.6 3580,1080C3580,1052.4 3602.4,1030 3630,1030ZM3510,910C3537.6,910 3560,932.404 3560,960C3560,987.596 3537.6,1010 3510,1010C3482.4,1010 3460,987.596 3460,960C3460,932.404 3482.4,910 3510,910ZM3510,1030C3537.6,1030 3560,1052.4 3560,1080C3560,1107.6 3537.6,1130 3510,1130C3482.4,1130 3460,1107.6 3460,1080C3460,1052.4 3482.4,1030 3510,1030ZM3630,910C3657.6,910 3680,932.404 3680,960C3680,987.596 3657.6,1010 3630,1010C3602.4,1010 3580,987.596 3580,960C3580,932.404 3602.4,910 3630,910ZM3630,930C3613.44,930 3600,943.443 3600,960C3600,976.557 3613.44,990 3630,990C3646.56,990 3660,976.557 3660,960C3660,943.443 3646.56,930 3630,930ZM3730,860.659C3730,855.14 3734.48,850.659 3740,850.659C3745.52,850.659 3750,855.14 3750,860.659L3750,900.659C3750,906.179 3745.52,910.659 3740,910.659C3734.48,910.659 3730,906.179 3730,900.659L3730,860.659Z"/>
    </g>
</svg>
