<?xml version="1.0" encoding="UTF-8" standalone="no"?>
<!DOCTYPE svg PUBLIC "-//W3C//DTD SVG 1.1//EN" "http://www.w3.org/Graphics/SVG/1.1/DTD/svg11.dtd">
<svg width="100%" height="100%" viewBox="0 0 1080 1080" version="1.1" xmlns="http://www.w3.org/2000/svg" xmlns:xlink="http://www.w3.org/1999/xlink" xml:space="preserve" xmlns:serif="http://www.serif.com/" style="fill-rule:evenodd;clip-rule:evenodd;stroke-linejoin:round;stroke-miterlimit:2;">
    <g transform="matrix(2.16,0,0,2.16,-3607.2,-1729.42)">
        <path d="M2170,925.659L2170,1175.66C2170,1244.65 2113.99,1300.66 2045,1300.66L1795,1300.66C1726.01,1300.66 1670,1244.65 1670,1175.66L1670,925.659C1670,856.67 1726.01,800.659 1795,800.659L2045,800.659C2113.99,800.659 2170,856.67 2170,925.659ZM2150,925.659C2150,867.708 2102.95,820.659 2045,820.659L1795,820.659C1737.05,820.659 1690,867.708 1690,925.659L1690,1175.66C1690,1233.61 1737.05,1280.66 1795,1280.66L2045,1280.66C2102.95,1280.66 2150,1233.61 2150,1175.66L2150,925.659ZM2093.79,1014.45L2093.79,1026.87C2093.79,1122.79 2015.92,1200.66 1920,1200.66C1824.08,1200.66 1746.21,1122.79 1746.21,1026.87L1746.21,1014.45C1746.21,918.533 1824.08,840.659 1920,840.659C2015.92,840.659 2093.79,918.533 2093.79,1014.45ZM2073.79,1014.45C2073.79,929.572 2004.88,860.659 1920,860.659C1835.12,860.659 1766.21,929.572 1766.21,1014.45L1766.21,1026.87C1766.21,1111.75 1835.12,1180.66 1920,1180.66C2004.88,1180.66 2073.79,1111.75 2073.79,1026.87L2073.79,1014.45ZM1945,1120.66C1953.28,1120.66 1960,1127.38 1960,1135.66C1960,1143.94 1953.28,1150.66 1945,1150.66C1936.72,1150.66 1930,1143.94 1930,1135.66C1930,1127.38 1936.72,1120.66 1945,1120.66ZM1970,900.659C1992.08,900.659 2010,918.583 2010,940.659C2010,962.736 1992.08,980.659 1970,980.659C1947.92,980.659 1930,962.736 1930,940.659C1930,918.583 1947.92,900.659 1970,900.659ZM1870,900.659C1892.08,900.659 1910,918.583 1910,940.659C1910,962.736 1892.08,980.659 1870,980.659C1847.92,980.659 1830,962.736 1830,940.659C1830,918.583 1847.92,900.659 1870,900.659ZM1820,1010.66C1842.08,1010.66 1860,1028.58 1860,1050.66C1860,1072.74 1842.08,1090.66 1820,1090.66C1797.92,1090.66 1780,1072.74 1780,1050.66C1780,1028.58 1797.92,1010.66 1820,1010.66ZM1895,1120.66C1903.28,1120.66 1910,1127.38 1910,1135.66C1910,1143.94 1903.28,1150.66 1895,1150.66C1886.72,1150.66 1880,1143.94 1880,1135.66C1880,1127.38 1886.72,1120.66 1895,1120.66ZM2020,1010.66C2042.08,1010.66 2060,1028.58 2060,1050.66C2060,1072.74 2042.08,1090.66 2020,1090.66C1997.92,1090.66 1980,1072.74 1980,1050.66C1980,1028.58 1997.92,1010.66 2020,1010.66Z"/>
    </g>
</svg>
