<?xml version="1.0" encoding="UTF-8" standalone="no"?>
<!DOCTYPE svg PUBLIC "-//W3C//DTD SVG 1.1//EN" "http://www.w3.org/Graphics/SVG/1.1/DTD/svg11.dtd">
<svg width="100%" height="100%" viewBox="0 0 1080 1080" version="1.1" xmlns="http://www.w3.org/2000/svg" xmlns:xlink="http://www.w3.org/1999/xlink" xml:space="preserve" xmlns:serif="http://www.serif.com/" style="fill-rule:evenodd;clip-rule:evenodd;stroke-linejoin:round;stroke-miterlimit:2;">
    <g transform="matrix(2.16,0,0,2.16,-4793.97,-216)">
        <path d="M2719.43,225L2719.43,475C2719.43,543.989 2663.42,600 2594.43,600L2344.43,600C2275.44,600 2219.43,543.989 2219.43,475L2219.43,225C2219.43,156.011 2275.44,100 2344.43,100L2594.43,100C2663.42,100 2719.43,156.011 2719.43,225ZM2699.43,225C2699.43,167.049 2652.38,120 2594.43,120L2344.43,120C2286.48,120 2239.43,167.049 2239.43,225L2239.43,475C2239.43,532.951 2286.48,580 2344.43,580L2594.43,580C2652.38,580 2699.43,532.951 2699.43,475L2699.43,225ZM2419.43,230L2419.43,430C2419.43,468.634 2388.07,500 2349.43,500C2310.8,500 2279.43,468.634 2279.43,430L2279.43,230C2279.43,191.366 2310.8,160 2349.43,160C2388.07,160 2419.43,191.366 2419.43,230ZM2399.43,230C2399.43,202.404 2377.03,180 2349.43,180C2321.84,180 2299.43,202.404 2299.43,230L2299.43,430C2299.43,457.596 2321.84,480 2349.43,480C2377.03,480 2399.43,457.596 2399.43,430L2399.43,230ZM2349.43,190C2371.51,190 2389.43,207.923 2389.43,230C2389.43,252.077 2371.51,270 2349.43,270C2327.35,270 2309.43,252.077 2309.43,230C2309.43,207.923 2327.35,190 2349.43,190ZM2349.43,290C2371.51,290 2389.43,307.923 2389.43,330C2389.43,352.077 2371.51,370 2349.43,370C2327.35,370 2309.43,352.077 2309.43,330C2309.43,307.923 2327.35,290 2349.43,290ZM2349.43,390C2371.51,390 2389.43,407.923 2389.43,430C2389.43,452.077 2371.51,470 2349.43,470C2327.35,470 2309.43,452.077 2309.43,430C2309.43,407.923 2327.35,390 2349.43,390ZM2316.93,267.5C2323.83,267.5 2329.43,273.101 2329.43,280C2329.43,286.899 2323.83,292.5 2316.93,292.5C2310.03,292.5 2304.43,286.899 2304.43,280C2304.43,273.101 2310.03,267.5 2316.93,267.5ZM2379.43,275C2382.19,275 2384.43,277.24 2384.43,280C2384.43,282.76 2382.19,285 2379.43,285C2376.67,285 2374.43,282.76 2374.43,280C2374.43,277.24 2376.67,275 2379.43,275Z"/>
    </g>
</svg>
