<?xml version="1.0" encoding="UTF-8" standalone="no"?>
<!DOCTYPE svg PUBLIC "-//W3C//DTD SVG 1.1//EN" "http://www.w3.org/Graphics/SVG/1.1/DTD/svg11.dtd">
<svg width="100%" height="100%" viewBox="0 0 1080 1080" version="1.1" xmlns="http://www.w3.org/2000/svg" xmlns:xlink="http://www.w3.org/1999/xlink" xml:space="preserve" xmlns:serif="http://www.serif.com/" style="fill-rule:evenodd;clip-rule:evenodd;stroke-linejoin:round;stroke-miterlimit:2;">
    <g transform="matrix(2.16,0,0,2.16,-2419.2,-1728)">
        <path d="M1620,925L1620,1175C1620,1243.99 1563.99,1300 1495,1300L1245,1300C1176.01,1300 1120,1243.99 1120,1175L1120,925C1120,856.011 1176.01,800 1245,800L1495,800C1563.99,800 1620,856.011 1620,925ZM1600,925C1600,867.049 1552.95,820 1495,820L1245,820C1187.05,820 1140,867.049 1140,925L1140,1175C1140,1232.95 1187.05,1280 1245,1280L1495,1280C1552.95,1280 1600,1232.95 1600,1175L1600,925ZM1480,934L1480,1006C1480,1057.88 1437.88,1100 1386,1100L1274,1100C1222.12,1100 1180,1057.88 1180,1006L1180,934C1180,882.12 1222.12,840 1274,840L1386,840C1437.88,840 1480,882.12 1480,934ZM1460,934C1460,893.158 1426.84,860 1386,860L1274,860C1233.16,860 1200,893.158 1200,934L1200,1006C1200,1046.84 1233.16,1080 1274,1080L1386,1080C1426.84,1080 1460,1046.84 1460,1006L1460,934ZM1390.91,1037.5C1389.53,1037.5 1388.41,1036.38 1388.41,1035C1388.41,1033.62 1389.53,1032.5 1390.91,1032.5L1409.09,1032.5C1410.47,1032.5 1411.59,1033.62 1411.59,1035C1411.59,1036.38 1410.47,1037.5 1409.09,1037.5L1390.91,1037.5ZM1400,953.522C1417.39,953.522 1431.52,967.643 1431.52,985.037C1431.52,1002.43 1417.39,1016.55 1400,1016.55C1382.61,1016.55 1368.49,1002.43 1368.49,985.037C1368.49,967.643 1382.61,953.522 1400,953.522ZM1398.49,872.474C1415.88,872.474 1430,886.595 1430,903.989C1430,921.382 1415.88,935.504 1398.49,935.504C1381.09,935.504 1366.97,921.382 1366.97,903.989C1366.97,886.595 1381.09,872.474 1398.49,872.474ZM1270,1005C1278.28,1005 1285,1011.72 1285,1020C1285,1028.28 1278.28,1035 1270,1035C1261.72,1035 1255,1028.28 1255,1020C1255,1011.72 1261.72,1005 1270,1005ZM1270,880C1297.6,880 1320,902.404 1320,930C1320,957.596 1297.6,980 1270,980C1242.4,980 1220,957.596 1220,930C1220,902.404 1242.4,880 1270,880Z"/>
    </g>
</svg>
