<?xml version="1.0" standalone="no"?>
<!DOCTYPE svg PUBLIC "-//W3C//DTD SVG 20010904//EN"
 "http://www.w3.org/TR/2001/REC-SVG-20010904/DTD/svg10.dtd">
<svg version="1.0" xmlns="http://www.w3.org/2000/svg"
 width="1500.000000pt" height="500.000000pt" viewBox="0 0 1500.000000 500.000000"
 preserveAspectRatio="xMidYMid meet">

<g transform="translate(0.000000,500.000000) scale(0.100000,-0.100000)"
fill="#000000" stroke="none">
<path d="M1546 3667 c-55 -94 -135 -232 -178 -306 -43 -74 -78 -140 -78 -148
0 -20 337 -603 349 -603 4 0 23 28 42 63 36 62 100 174 284 492 225 388 385
667 385 671 0 2 -159 4 -352 4 l-353 0 -99 -173z"/>
<path d="M2843 2948 c4 -823 5 -879 24 -978 46 -240 119 -386 263 -530 186
-186 392 -264 725 -277 437 -17 744 104 946 372 45 60 119 214 144 300 48 169
48 157 52 1098 l4 887 -355 0 -355 0 -4 -872 c-3 -765 -5 -881 -20 -941 -39
-163 -123 -245 -272 -266 -173 -25 -319 43 -376 175 -47 111 -49 151 -49 1055
l0 849 -366 0 -365 0 4 -872z"/>
<path d="M5490 2505 l0 -1315 900 0 900 0 0 300 0 300 -530 0 -530 0 0 1015 0
1015 -370 0 -370 0 0 -1315z"/>
<path d="M7720 2505 l0 -1315 900 0 900 0 0 300 0 300 -530 0 -530 0 0 1015 0
1015 -370 0 -370 0 0 -1315z"/>
<path d="M9923 2948 c3 -731 7 -886 19 -954 52 -269 129 -426 281 -570 178
-170 392 -249 707 -261 605 -23 978 220 1105 722 42 164 45 244 45 1110 l0
825 -354 0 -355 0 -4 -877 c-4 -973 -2 -951 -70 -1064 -36 -60 -104 -112 -170
-130 -61 -16 -184 -14 -248 4 -71 21 -139 80 -173 150 -55 111 -56 135 -56
1063 l0 854 -366 0 -365 0 4 -872z"/>
<path d="M13226 3743 c-50 -155 -680 -2074 -757 -2307 -43 -132 -79 -241 -79
-243 0 -1 166 -3 369 -3 272 0 372 3 377 12 4 6 32 120 63 252 l56 241 365 0
365 0 56 -225 c31 -124 59 -237 63 -252 l6 -28 380 0 c209 0 380 3 380 6 0 3
-69 216 -154 472 -126 380 -468 1420 -667 2030 l-41 122 -378 0 -378 0 -26
-77z m554 -1173 c39 -162 73 -303 76 -312 5 -17 -10 -18 -230 -18 -130 0 -236
4 -236 9 0 5 25 111 55 237 31 126 81 333 111 459 31 127 58 239 62 250 6 20
24 -49 162 -625z"/>
<path d="M789 2358 c-23 -40 -66 -114 -95 -164 -29 -50 -95 -165 -147 -255
-51 -90 -154 -267 -227 -394 -164 -282 -190 -328 -190 -338 0 -4 158 -6 352
-5 l352 3 69 120 c38 66 118 204 178 307 60 103 109 191 109 197 0 8 -61 116
-278 489 -36 61 -69 112 -73 112 -4 0 -27 -33 -50 -72z"/>
<path d="M2222 1302 c-12 -20 -29 -47 -38 -59 -9 -13 -12 -23 -7 -23 12 0 75
99 71 111 -2 5 -13 -8 -26 -29z"/>
<path d="M2241 1276 c-31 -49 -27 -56 30 -56 28 0 49 3 47 8 -25 51 -43 82
-49 82 -4 0 -17 -15 -28 -34z"/>
</g>
</svg>
