<?xml version="1.0" standalone="no"?>
<!DOCTYPE svg PUBLIC "-//W3C//DTD SVG 20010904//EN"
 "http://www.w3.org/TR/2001/REC-SVG-20010904/DTD/svg10.dtd">
<svg version="1.0" xmlns="http://www.w3.org/2000/svg"
 width="750.000000pt" height="750.000000pt" viewBox="0 0 750.000000 750.000000"
 preserveAspectRatio="xMidYMid meet">

<g transform="translate(0.000000,750.000000) scale(0.100000,-0.100000)"
fill="#000000" stroke="none">
<path d="M5398 2068 c-14 -23 -55 -102 -90 -173 -36 -72 -76 -148 -89 -170
-14 -22 -40 -71 -58 -110 -18 -38 -37 -77 -42 -85 -5 -8 -20 -35 -33 -60 -13
-25 -41 -76 -62 -115 -22 -38 -50 -96 -63 -127 -13 -32 -26 -58 -30 -58 -4 0
-45 -75 -91 -167 -47 -93 -101 -197 -122 -233 -44 -75 -45 -88 -17 -147 l21
-43 764 0 c753 0 764 0 784 20 l20 20 -26 48 c-91 160 -151 265 -232 402 -50
85 -110 189 -133 230 -23 41 -70 122 -104 180 -124 209 -225 382 -225 386 0 4
-47 85 -85 144 -12 19 -31 50 -42 68 l-20 34 -25 -44z"/>
</g>
</svg>
